<?xml version="1.0" encoding="UTF-8" standalone="no"?>
<svg
   id="svg2"
   version="1.1"
   inkscape:version="1.2.2 (1:1.2.2+202212051552+b0a8486541)"
   width="420mm"
   height="297mm"
   xml:space="preserve"
   sodipodi:docname="arm_sw.svg"
   inkscape:export-filename="fpga_2.pdf"
   inkscape:export-xdpi="200"
   inkscape:export-ydpi="200"
   viewBox="0 0 1428.6614 1010.2678"
   xmlns:inkscape="http://www.inkscape.org/namespaces/inkscape"
   xmlns:sodipodi="http://sodipodi.sourceforge.net/DTD/sodipodi-0.dtd"
   xmlns:xlink="http://www.w3.org/1999/xlink"
   xmlns="http://www.w3.org/2000/svg"
   xmlns:svg="http://www.w3.org/2000/svg"
   xmlns:rdf="http://www.w3.org/1999/02/22-rdf-syntax-ns#"
   xmlns:cc="http://creativecommons.org/ns#"
   xmlns:dc="http://purl.org/dc/elements/1.1/"><metadata
     id="metadata8"><rdf:RDF><cc:Work
         rdf:about=""><dc:format>image/svg+xml</dc:format><dc:type
           rdf:resource="http://purl.org/dc/dcmitype/StillImage" /></cc:Work></rdf:RDF></metadata><defs
     id="defs6"><marker
   inkscape:stockid="DotM"
   orient="auto"
   refY="0"
   refX="0"
   id="DotM"
   style="overflow:visible"><path
     id="path13484"
     d="m -2.5,-1 c 0,2.76 -2.24,5 -5,5 -2.76,0 -5,-2.24 -5,-5 0,-2.76 2.24,-5 5,-5 2.76,0 5,2.24 5,5 z"
     style="fill-rule:evenodd;stroke:#000000;stroke-width:1pt;marker-start:none;marker-end:none"
     transform="matrix(0.4,0,0,0.4,2.96,0.4)" /></marker><marker
   inkscape:stockid="DotS"
   orient="auto"
   refY="0"
   refX="0"
   id="DotS"
   style="overflow:visible"><path
     id="path13487"
     d="m -2.5,-1 c 0,2.76 -2.24,5 -5,5 -2.76,0 -5,-2.24 -5,-5 0,-2.76 2.24,-5 5,-5 2.76,0 5,2.24 5,5 z"
     style="fill-rule:evenodd;stroke:#000000;stroke-width:1pt;marker-start:none;marker-end:none"
     transform="matrix(0.2,0,0,0.2,1.48,0.2)" /></marker><linearGradient
   id="linearGradient13151"
   inkscape:swatch="solid"><stop
     style="stop-color:#ffffff;stop-opacity:1;"
     offset="0"
     id="stop13153" /></linearGradient><linearGradient
   id="linearGradient13145"
   inkscape:swatch="solid"><stop
     style="stop-color:#540000;stop-opacity:1;"
     offset="0"
     id="stop13147" /></linearGradient>




<linearGradient
   inkscape:collect="always"
   xlink:href="#linearGradient13151"
   id="linearGradient13155"
   x1="398.60001"
   y1="549"
   x2="403.89951"
   y2="549"
   gradientUnits="userSpaceOnUse" /><marker
   inkscape:stockid="DotM"
   orient="auto"
   refY="0"
   refX="0"
   id="DotM-0"
   style="overflow:visible"><path
     inkscape:connector-curvature="0"
     id="path13484-5"
     d="m -2.5,-1 c 0,2.76 -2.24,5 -5,5 -2.76,0 -5,-2.24 -5,-5 0,-2.76 2.24,-5 5,-5 2.76,0 5,2.24 5,5 z"
     style="fill-rule:evenodd;stroke:#000000;stroke-width:1pt;marker-start:none;marker-end:none"
     transform="matrix(0.4,0,0,0.4,2.96,0.4)" /></marker><marker
   inkscape:stockid="DotM"
   orient="auto"
   refY="0"
   refX="0"
   id="marker20432"
   style="overflow:visible"><path
     inkscape:connector-curvature="0"
     id="path20434"
     d="m -2.5,-1 c 0,2.76 -2.24,5 -5,5 -2.76,0 -5,-2.24 -5,-5 0,-2.76 2.24,-5 5,-5 2.76,0 5,2.24 5,5 z"
     style="fill-rule:evenodd;stroke:#000000;stroke-width:1pt;marker-start:none;marker-end:none"
     transform="matrix(0.4,0,0,0.4,2.96,0.4)" /></marker><marker
   inkscape:stockid="DotM"
   orient="auto"
   refY="0"
   refX="0"
   id="marker20436"
   style="overflow:visible"><path
     inkscape:connector-curvature="0"
     id="path20438"
     d="m -2.5,-1 c 0,2.76 -2.24,5 -5,5 -2.76,0 -5,-2.24 -5,-5 0,-2.76 2.24,-5 5,-5 2.76,0 5,2.24 5,5 z"
     style="fill-rule:evenodd;stroke:#000000;stroke-width:1pt;marker-start:none;marker-end:none"
     transform="matrix(0.4,0,0,0.4,2.96,0.4)" /></marker><marker
   inkscape:stockid="DotM"
   orient="auto"
   refY="0"
   refX="0"
   id="DotM-5"
   style="overflow:visible"><path
     inkscape:connector-curvature="0"
     id="path13484-7"
     d="m -2.5,-1 c 0,2.76 -2.24,5 -5,5 -2.76,0 -5,-2.24 -5,-5 0,-2.76 2.24,-5 5,-5 2.76,0 5,2.24 5,5 z"
     style="fill-rule:evenodd;stroke:#000000;stroke-width:1pt;marker-start:none;marker-end:none"
     transform="matrix(0.4,0,0,0.4,2.96,0.4)" /></marker><marker
   inkscape:stockid="DotM"
   orient="auto"
   refY="0"
   refX="0"
   id="DotM-6"
   style="overflow:visible"><path
     inkscape:connector-curvature="0"
     id="path13484-72"
     d="m -2.5,-1 c 0,2.76 -2.24,5 -5,5 -2.76,0 -5,-2.24 -5,-5 0,-2.76 2.24,-5 5,-5 2.76,0 5,2.24 5,5 z"
     style="fill-rule:evenodd;stroke:#000000;stroke-width:1pt;marker-start:none;marker-end:none"
     transform="matrix(0.4,0,0,0.4,2.96,0.4)" /></marker><marker
   inkscape:stockid="DotM"
   orient="auto"
   refY="0"
   refX="0"
   id="DotM-07"
   style="overflow:visible"
   viewBox="0 0 4.5333334 4.5333334"
   markerWidth="4.5333333"
   markerHeight="4.5333333"
   preserveAspectRatio="xMidYMid"><path
     inkscape:connector-curvature="0"
     id="path13484-8"
     d="m -2.5,-1 c 0,2.76 -2.24,5 -5,5 -2.76,0 -5,-2.24 -5,-5 0,-2.76 2.24,-5 5,-5 2.76,0 5,2.24 5,5 z"
     style="fill-rule:evenodd;stroke:#000000;stroke-width:1pt;marker-start:none;marker-end:none"
     transform="matrix(0.4,0,0,0.4,2.96,0.4)" /></marker><marker
   inkscape:stockid="DotM"
   orient="auto"
   refY="0"
   refX="0"
   id="DotM-52"
   style="overflow:visible"><path
     inkscape:connector-curvature="0"
     id="path13484-4"
     d="m -2.5,-1 c 0,2.76 -2.24,5 -5,5 -2.76,0 -5,-2.24 -5,-5 0,-2.76 2.24,-5 5,-5 2.76,0 5,2.24 5,5 z"
     style="fill-rule:evenodd;stroke:#000000;stroke-width:1pt;marker-start:none;marker-end:none"
     transform="matrix(0.4,0,0,0.4,2.96,0.4)" /></marker><marker
   inkscape:stockid="DotM"
   orient="auto"
   refY="0"
   refX="0"
   id="DotM-2"
   style="overflow:visible"><path
     inkscape:connector-curvature="0"
     id="path13484-86"
     d="m -2.5,-1 c 0,2.76 -2.24,5 -5,5 -2.76,0 -5,-2.24 -5,-5 0,-2.76 2.24,-5 5,-5 2.76,0 5,2.24 5,5 z"
     style="fill-rule:evenodd;stroke:#000000;stroke-width:1pt;marker-start:none;marker-end:none"
     transform="matrix(0.4,0,0,0.4,2.96,0.4)" /></marker><marker
   inkscape:stockid="DotM"
   orient="auto"
   refY="0"
   refX="0"
   id="DotM-2-8"
   style="overflow:visible"><path
     inkscape:connector-curvature="0"
     id="path13484-86-8"
     d="m -2.5,-1 c 0,2.76 -2.24,5 -5,5 -2.76,0 -5,-2.24 -5,-5 0,-2.76 2.24,-5 5,-5 2.76,0 5,2.24 5,5 z"
     style="fill-rule:evenodd;stroke:#000000;stroke-width:1pt;marker-start:none;marker-end:none"
     transform="matrix(0.4,0,0,0.4,2.96,0.4)" /></marker><marker
   inkscape:stockid="DotM"
   orient="auto"
   refY="0"
   refX="0"
   id="DotM-2-4"
   style="overflow:visible"><path
     inkscape:connector-curvature="0"
     id="path13484-86-3"
     d="m -2.5,-1 c 0,2.76 -2.24,5 -5,5 -2.76,0 -5,-2.24 -5,-5 0,-2.76 2.24,-5 5,-5 2.76,0 5,2.24 5,5 z"
     style="fill-rule:evenodd;stroke:#000000;stroke-width:1pt;marker-start:none;marker-end:none"
     transform="matrix(0.4,0,0,0.4,2.96,0.4)" /></marker><marker
   inkscape:stockid="DotM"
   orient="auto"
   refY="0"
   refX="0"
   id="DotM-2-4-2"
   style="overflow:visible"><path
     inkscape:connector-curvature="0"
     id="path13484-86-3-0"
     d="m -2.5,-1 c 0,2.76 -2.24,5 -5,5 -2.76,0 -5,-2.24 -5,-5 0,-2.76 2.24,-5 5,-5 2.76,0 5,2.24 5,5 z"
     style="fill-rule:evenodd;stroke:#000000;stroke-width:1pt;marker-start:none;marker-end:none"
     transform="matrix(0.4,0,0,0.4,2.96,0.4)" /></marker><marker
   inkscape:stockid="DotM"
   orient="auto"
   refY="0"
   refX="0"
   id="DotM-2-42"
   style="overflow:visible"><path
     inkscape:connector-curvature="0"
     id="path13484-86-6"
     d="m -2.5,-1 c 0,2.76 -2.24,5 -5,5 -2.76,0 -5,-2.24 -5,-5 0,-2.76 2.24,-5 5,-5 2.76,0 5,2.24 5,5 z"
     style="fill-rule:evenodd;stroke:#000000;stroke-width:1pt;marker-start:none;marker-end:none"
     transform="matrix(0.4,0,0,0.4,2.96,0.4)" /></marker><marker
   inkscape:stockid="DotM"
   orient="auto"
   refY="0"
   refX="0"
   id="DotM-2-42-2"
   style="overflow:visible"><path
     inkscape:connector-curvature="0"
     id="path13484-86-6-7"
     d="m -2.5,-1 c 0,2.76 -2.24,5 -5,5 -2.76,0 -5,-2.24 -5,-5 0,-2.76 2.24,-5 5,-5 2.76,0 5,2.24 5,5 z"
     style="fill-rule:evenodd;stroke:#000000;stroke-width:1pt;marker-start:none;marker-end:none"
     transform="matrix(0.4,0,0,0.4,2.96,0.4)" /></marker><marker
   inkscape:stockid="DotM"
   orient="auto"
   refY="0"
   refX="0"
   id="DotM-2-42-2-4"
   style="overflow:visible"><path
     inkscape:connector-curvature="0"
     id="path13484-86-6-7-8"
     d="m -2.5,-1 c 0,2.76 -2.24,5 -5,5 -2.76,0 -5,-2.24 -5,-5 0,-2.76 2.24,-5 5,-5 2.76,0 5,2.24 5,5 z"
     style="fill-rule:evenodd;stroke:#000000;stroke-width:1pt;marker-start:none;marker-end:none"
     transform="matrix(0.4,0,0,0.4,2.96,0.4)" /></marker><marker
   style="overflow:visible"
   id="marker27788-8-1-7-6-1-5-2-7-9-2-5-7"
   refX="0"
   refY="0"
   orient="auto-start-reverse"
   inkscape:stockid="Arrow2"
   markerWidth="7.6999998"
   markerHeight="5.5999999"
   viewBox="0 0 7.7 5.6"
   inkscape:isstock="true"
   inkscape:collect="always"
   preserveAspectRatio="xMidYMid"><path
     transform="scale(0.7)"
     d="M -2,-4 9,0 -2,4 c 2,-2.33 2,-5.66 0,-8 z"
     style="fill:context-stroke;fill-rule:evenodd;stroke:none"
     id="path27786-6-9-6-6-4-8-4-4-8-2-42-5" /></marker><marker
   style="overflow:visible"
   id="marker27788-6-6-9-9-5-2-7-1-3"
   refX="0"
   refY="0"
   orient="auto-start-reverse"
   inkscape:stockid="Arrow2"
   markerWidth="7.6999998"
   markerHeight="5.5999999"
   viewBox="0 0 7.7 5.6"
   inkscape:isstock="true"
   inkscape:collect="always"
   preserveAspectRatio="xMidYMid"><path
     transform="scale(0.7)"
     d="M -2,-4 9,0 -2,4 c 2,-2.33 2,-5.66 0,-8 z"
     style="fill:context-stroke;fill-rule:evenodd;stroke:none"
     id="path27786-67-0-9-2-1-0-1-9-9" /></marker><marker
   style="overflow:visible"
   id="marker27788-8-1-7-6-1-5-2-7-9-2-5-7-5"
   refX="0"
   refY="0"
   orient="auto-start-reverse"
   inkscape:stockid="Arrow2"
   markerWidth="7.6999998"
   markerHeight="5.5999999"
   viewBox="0 0 7.7 5.6"
   inkscape:isstock="true"
   inkscape:collect="always"
   preserveAspectRatio="xMidYMid"><path
     transform="scale(0.7)"
     d="M -2,-4 9,0 -2,4 c 2,-2.33 2,-5.66 0,-8 z"
     style="fill:context-stroke;fill-rule:evenodd;stroke:none"
     id="path27786-6-9-6-6-4-8-4-4-8-2-42-5-5" /></marker><marker
   style="overflow:visible"
   id="marker27788-6-6-9-9-5-2-7-1-3-6"
   refX="0"
   refY="0"
   orient="auto-start-reverse"
   inkscape:stockid="Arrow2"
   markerWidth="7.6999998"
   markerHeight="5.5999999"
   viewBox="0 0 7.7 5.6"
   inkscape:isstock="true"
   inkscape:collect="always"
   preserveAspectRatio="xMidYMid"><path
     transform="scale(0.7)"
     d="M -2,-4 9,0 -2,4 c 2,-2.33 2,-5.66 0,-8 z"
     style="fill:context-stroke;fill-rule:evenodd;stroke:none"
     id="path27786-67-0-9-2-1-0-1-9-9-3" /></marker><marker
   style="overflow:visible"
   id="marker27788-8-1-7-6-1-5-2-7-5-7"
   refX="0"
   refY="0"
   orient="auto-start-reverse"
   inkscape:stockid="Arrow2"
   markerWidth="7.6999998"
   markerHeight="5.5999999"
   viewBox="0 0 7.7 5.6"
   inkscape:isstock="true"
   inkscape:collect="always"
   preserveAspectRatio="xMidYMid"><path
     transform="scale(0.7)"
     d="M -2,-4 9,0 -2,4 c 2,-2.33 2,-5.66 0,-8 z"
     style="fill:context-stroke;fill-rule:evenodd;stroke:none"
     id="path27786-6-9-6-6-4-8-4-4-0-3" /></marker><marker
   style="overflow:visible"
   id="marker27788-6-6-9-9-5-0-3"
   refX="0"
   refY="0"
   orient="auto-start-reverse"
   inkscape:stockid="Arrow2"
   markerWidth="7.6999998"
   markerHeight="5.5999999"
   viewBox="0 0 7.7 5.6"
   inkscape:isstock="true"
   inkscape:collect="always"
   preserveAspectRatio="xMidYMid"><path
     transform="scale(0.7)"
     d="M -2,-4 9,0 -2,4 c 2,-2.33 2,-5.66 0,-8 z"
     style="fill:context-stroke;fill-rule:evenodd;stroke:none"
     id="path27786-67-0-9-2-1-6-2" /></marker><marker
   style="overflow:visible"
   id="marker27788-8-1-7-6-1-5-2-7-5-7-4"
   refX="0"
   refY="0"
   orient="auto-start-reverse"
   inkscape:stockid="Arrow2"
   markerWidth="7.6999998"
   markerHeight="5.5999999"
   viewBox="0 0 7.7 5.6"
   inkscape:isstock="true"
   inkscape:collect="always"
   preserveAspectRatio="xMidYMid"><path
     transform="scale(0.7)"
     d="M -2,-4 9,0 -2,4 c 2,-2.33 2,-5.66 0,-8 z"
     style="fill:context-stroke;fill-rule:evenodd;stroke:none"
     id="path27786-6-9-6-6-4-8-4-4-0-3-0" /></marker><marker
   style="overflow:visible"
   id="marker27788-6-6-9-9-5-0-3-0"
   refX="0"
   refY="0"
   orient="auto-start-reverse"
   inkscape:stockid="Arrow2"
   markerWidth="7.6999998"
   markerHeight="5.5999999"
   viewBox="0 0 7.7 5.6"
   inkscape:isstock="true"
   inkscape:collect="always"
   preserveAspectRatio="xMidYMid"><path
     transform="scale(0.7)"
     d="M -2,-4 9,0 -2,4 c 2,-2.33 2,-5.66 0,-8 z"
     style="fill:context-stroke;fill-rule:evenodd;stroke:none"
     id="path27786-67-0-9-2-1-6-2-8" /></marker><marker
   style="overflow:visible"
   id="marker27788-8-1-7-6-1-5-3"
   refX="0"
   refY="0"
   orient="auto-start-reverse"
   inkscape:stockid="Arrow2"
   markerWidth="7.6999998"
   markerHeight="5.5999999"
   viewBox="0 0 7.7 5.6"
   inkscape:isstock="true"
   inkscape:collect="always"
   preserveAspectRatio="xMidYMid"><path
     transform="scale(0.7)"
     d="M -2,-4 9,0 -2,4 c 2,-2.33 2,-5.66 0,-8 z"
     style="fill:context-stroke;fill-rule:evenodd;stroke:none"
     id="path27786-6-9-6-6-4-8-3" /></marker><marker
   style="overflow:visible"
   id="marker27788-8-1-7-6-1-5-3-4"
   refX="0"
   refY="0"
   orient="auto-start-reverse"
   inkscape:stockid="Arrow2"
   markerWidth="7.6999998"
   markerHeight="5.5999999"
   viewBox="0 0 7.7 5.6"
   inkscape:isstock="true"
   inkscape:collect="always"
   preserveAspectRatio="xMidYMid"><path
     transform="scale(0.7)"
     d="M -2,-4 9,0 -2,4 c 2,-2.33 2,-5.66 0,-8 z"
     style="fill:context-stroke;fill-rule:evenodd;stroke:none"
     id="path27786-6-9-6-6-4-8-3-5" /></marker><marker
   style="overflow:visible"
   id="marker27788-8-1-7-6-1-5-3-6"
   refX="0"
   refY="0"
   orient="auto-start-reverse"
   inkscape:stockid="Arrow2"
   markerWidth="7.6999998"
   markerHeight="5.5999999"
   viewBox="0 0 7.7 5.6"
   inkscape:isstock="true"
   inkscape:collect="always"
   preserveAspectRatio="xMidYMid"><path
     transform="scale(0.7)"
     d="M -2,-4 9,0 -2,4 c 2,-2.33 2,-5.66 0,-8 z"
     style="fill:context-stroke;fill-rule:evenodd;stroke:none"
     id="path27786-6-9-6-6-4-8-3-7" /></marker><marker
   style="overflow:visible"
   id="marker27788-8-1-7-6-1-5-3-4-5"
   refX="0"
   refY="0"
   orient="auto-start-reverse"
   inkscape:stockid="Arrow2"
   markerWidth="7.6999998"
   markerHeight="5.5999999"
   viewBox="0 0 7.7 5.6"
   inkscape:isstock="true"
   inkscape:collect="always"
   preserveAspectRatio="xMidYMid"><path
     transform="scale(0.7)"
     d="M -2,-4 9,0 -2,4 c 2,-2.33 2,-5.66 0,-8 z"
     style="fill:context-stroke;fill-rule:evenodd;stroke:none"
     id="path27786-6-9-6-6-4-8-3-5-3" /></marker></defs><sodipodi:namedview
     pagecolor="#ffffff"
     bordercolor="#666666"
     borderopacity="1"
     objecttolerance="10"
     gridtolerance="10"
     guidetolerance="10"
     inkscape:pageopacity="0"
     inkscape:pageshadow="2"
     inkscape:window-width="3440"
     inkscape:window-height="1403"
     id="namedview4"
     showgrid="true"
     units="mm"
     borderlayer="false"
     inkscape:zoom="0.76127497"
     inkscape:cx="881.41608"
     inkscape:cy="706.70917"
     inkscape:window-x="0"
     inkscape:window-y="0"
     inkscape:window-maximized="1"
     inkscape:current-layer="g10"
     inkscape:snap-grids="true"
     inkscape:snap-to-guides="true"
     inkscape:document-rotation="0"
     inkscape:snap-bbox="true"
     inkscape:snap-global="true"
     showguides="true"
     width="296mm"
     scale-x="0.9"
     inkscape:showpageshadow="0"
     inkscape:pagecheckerboard="0"
     inkscape:deskcolor="#d1d1d1"
     inkscape:document-units="mm"><inkscape:grid
       empspacing="5"
       visible="true"
       enabled="true"
       snapvisiblegridlinesonly="true"
       units="pt"
       spacingx="0.9pt"
       spacingy="0.9pt"
       type="xygrid"
       id="grid5223"
       originx="0"
       originy="0" /></sodipodi:namedview><g
     id="g10"
     inkscape:groupmode="layer"
     inkscape:label="ink_ext_XXXXXX"
     transform="matrix(0,1.25,1.25,0,0,42.5)">



































































































































































































































































































































































































































































































































































































































































































































































































































































































































































<path
   style="fill:none;fill-rule:evenodd;stroke:#000000;stroke-width:0.959414;stroke-linecap:butt;stroke-linejoin:miter;stroke-dasharray:none;stroke-opacity:1"
   d="m 279.93786,17.15376 v 0"
   id="path24445"
   inkscape:connector-type="polyline"
   inkscape:connector-curvature="0" /><path
   style="fill:none;fill-rule:evenodd;stroke:#000000;stroke-width:0.959414;stroke-linecap:butt;stroke-linejoin:miter;stroke-dasharray:none;stroke-opacity:1"
   d="m 287.36392,32.752296 v 0"
   id="path24447"
   inkscape:connector-type="polyline"
   inkscape:connector-curvature="0" /><path
   style="fill:none;stroke:#000000;stroke-width:1.77515745;stroke-linecap:butt;stroke-linejoin:miter;stroke-dasharray:none;stroke-opacity:1;marker-start:url(#marker27788-8-1-7-6-1-5-2-7-5-7);marker-end:url(#marker27788-6-6-9-9-5-0-3)"
   d="m 590.82187,583.45374 v 5.60269 5.60115 50.41084"
   id="path14961-6-1-5-8-0-3-9-91-78-70-1"
   inkscape:connector-curvature="0"
   sodipodi:nodetypes="cccc" /><path
   style="fill:none;stroke:#000000;stroke-width:1.78976421;stroke-linecap:butt;stroke-linejoin:miter;stroke-dasharray:none;stroke-opacity:1;marker-start:url(#marker27788-8-1-7-6-1-5-2-7-9-2-5-7);marker-end:url(#marker27788-6-6-9-9-5-2-7-1-3)"
   d="m 590.82187,494.87804 v 5.27348 5.27196 47.44854"
   id="path14961-6-1-5-8-0-3-9-91-78-7-5-2-0"
   inkscape:connector-curvature="0"
   sodipodi:nodetypes="cccc" /><rect
   style="fill:none;stroke:#000000;stroke-width:1.63275597;stroke-dasharray:none;stroke-opacity:0.995745"
   id="rect10903-6-7-5"
   width="1067.8672"
   height="742.9223"
   x="36.767479"
   y="2.1686361"
   transform="matrix(0,1,1,0,0,0)"
   ry="13.290697" /><rect
   style="fill:#d5e5ff;stroke:#000000;stroke-width:1.74704888;stroke-dasharray:none;stroke-opacity:0.995745"
   id="rect10903-6-7-5-8"
   width="379.5051"
   height="636.02588"
   x="101.27168"
   y="45.560413"
   transform="matrix(0,1,1,0,0,0)"
   ry="11.378345" /><rect
   style="fill:#e6e6e6;stroke:#000000;stroke-width:1.89127566;stroke-dasharray:none;stroke-opacity:0.995745"
   id="rect10903-6-7-5-8-7-7-4"
   width="411.02194"
   height="227.90114"
   x="637.8429"
   y="85.028305"
   transform="matrix(0,1,1,0,0,0)"
   ry="4.077095" /><rect
   style="fill:#e6e6e6;stroke:#000000;stroke-width:1.80419534;stroke-dasharray:none;stroke-opacity:0.995745"
   id="rect10903-6-7-5-8-7-7-4-1"
   width="208.85184"
   height="82.788017"
   x="660.41467"
   y="548.3291"
   transform="matrix(0,1,1,0,0,0)"
   ry="1.4810572" /><rect
   style="fill:#e6e6e6;stroke:#000000;stroke-width:1.79058904;stroke-dasharray:none;stroke-opacity:0.995745"
   id="rect10903-6-7-5-8-7-7-4-1-3"
   width="361.59204"
   height="103.89409"
   x="661.69165"
   y="374.88339"
   transform="matrix(0,1,1,0,0,0)"
   ry="1.8586396" /><rect
   style="fill:#ffffff;stroke:#000000;stroke-width:1.60554337;stroke-dasharray:none;stroke-opacity:0.995745"
   id="rect10903-6-7-5-8-7-7-4-1-4"
   width="365.69608"
   height="81.635971"
   x="659.13617"
   y="96.136223"
   transform="matrix(0,1,1,0,0,0)"
   ry="1.4604473" /><rect
   style="fill:#ffffff;stroke:#000000;stroke-width:1.85589929;stroke-dasharray:none;stroke-opacity:0.995745"
   id="rect10903-6-7-5-8-7-7-4-1-4-2"
   width="364.12424"
   height="80.490135"
   x="661.0921"
   y="220.54762"
   transform="matrix(0,1,1,0,0,0)"
   ry="1.4399487" /><path
   style="fill:none;stroke:#000000;stroke-width:1.98350269;stroke-linecap:butt;stroke-linejoin:miter;stroke-dasharray:none;stroke-opacity:1"
   d="m 2.7963245,568.69587 742.6691155,-10e-4"
   id="path2543-5-2-29-1-0-2-8-9-7-6-1" /><text
   xml:space="preserve"
   style="font-style:normal;font-weight:normal;font-size:45.7552px;line-height:0.35;font-family:sans-serif;fill:#000000;fill-opacity:1;stroke:none;stroke-width:1.13816212;stroke-dasharray:none"
   x="269.2298"
   y="359.66034"
   id="text786-0-2-5-4-7-05-8-1-6-43-14-9-2-6"
   transform="matrix(0,1.0749327,0.9302908,0,0,0)"><tspan
     sodipodi:role="line"
     x="269.2298"
     y="359.66034"
     style="font-size:18.3022px;text-align:center;text-anchor:middle;fill:#000000;stroke-width:1.13816212;stroke-dasharray:none"
     id="tspan8395">APPLICATION</tspan><tspan
     sodipodi:role="line"
     x="269.2298"
     y="378.00171"
     style="font-size:18.3022px;text-align:center;text-anchor:middle;fill:#000000;stroke-width:1.13816212;stroke-dasharray:none"
     id="tspan57758">RUNNING</tspan><tspan
     sodipodi:role="line"
     x="269.2298"
     y="396.34311"
     style="font-size:18.3022px;text-align:center;text-anchor:middle;fill:#000000;stroke-width:1.13816212;stroke-dasharray:none"
     id="tspan57760">ON X-HEEP</tspan></text><text
   xml:space="preserve"
   style="font-style:normal;font-weight:normal;font-size:45.7552px;line-height:0.25;font-family:sans-serif;fill:#000000;fill-opacity:1;stroke:none;stroke-width:1.13816212;stroke-dasharray:none"
   x="408.34042"
   y="642.80182"
   id="text786-0-2-5-4-7-05-8-1-6-43-14-9-2-6-03-2-7"
   transform="matrix(0,1.0749327,0.9302908,0,0,0)"><tspan
     sodipodi:role="line"
     x="408.34042"
     y="642.80182"
     style="font-size:18.3022px;text-align:center;text-anchor:middle;fill:#000000;stroke-width:1.13816212;stroke-dasharray:none"
     id="tspan8395-83-69-3">UART</tspan></text><text
   xml:space="preserve"
   style="font-style:normal;font-weight:normal;font-size:45.7552px;line-height:0.25;font-family:sans-serif;fill:#000000;fill-opacity:1;stroke:none;stroke-width:1.13816212;stroke-dasharray:none"
   x="779.40289"
   y="84.532738"
   id="text786-0-2-5-4-7-05-8-1-6-43-14-9-2-6-03-2-7-2"
   transform="matrix(0,1.0749327,0.9302908,0,0,0)"><tspan
     sodipodi:role="line"
     x="779.40289"
     y="84.532738"
     style="font-size:18.3022px;text-align:center;text-anchor:middle;fill:#000000;stroke-width:1.13816212;stroke-dasharray:none"
     id="tspan8395-83-69-3-3">OPENOCD</tspan></text><text
   xml:space="preserve"
   style="font-style:normal;font-weight:normal;font-size:45.7552px;line-height:0.25;font-family:sans-serif;fill:#000000;fill-opacity:1;stroke:none;stroke-width:1.13816212;stroke-dasharray:none"
   x="709.25299"
   y="638.87653"
   id="text786-0-2-5-4-7-05-8-1-6-43-14-9-2-6-03-2-7-2-7"
   transform="matrix(0,1.0749327,0.9302908,0,0,0)"><tspan
     sodipodi:role="line"
     x="709.25299"
     y="638.87653"
     style="font-size:18.3022px;text-align:center;text-anchor:middle;fill:#000000;stroke-width:1.13816212;stroke-dasharray:none"
     id="tspan8395-83-69-3-3-9">SCREEN</tspan></text><text
   xml:space="preserve"
   style="font-style:normal;font-weight:normal;font-size:45.7552px;line-height:0.25;font-family:sans-serif;fill:#000000;fill-opacity:1;stroke:none;stroke-width:1.13816212;stroke-dasharray:none"
   x="780.59448"
   y="285.84033"
   id="text786-0-2-5-4-7-05-8-1-6-43-14-9-2-6-03-2-7-2-8"
   transform="matrix(0,1.0749327,0.9302908,0,0,0)"><tspan
     sodipodi:role="line"
     x="780.59448"
     y="285.84033"
     style="font-size:18.3022px;text-align:center;text-anchor:middle;fill:#000000;stroke-width:1.13816212;stroke-dasharray:none"
     id="tspan57924">GDB SERVER</tspan></text><text
   xml:space="preserve"
   style="font-style:normal;font-weight:normal;font-size:45.7552px;line-height:0.25;font-family:sans-serif;fill:#000000;fill-opacity:1;stroke:none;stroke-width:1.13816212;stroke-dasharray:none"
   x="779.03424"
   y="465.76993"
   id="text786-0-2-5-4-7-05-8-1-6-43-14-9-2-6-03-2-7-2-8-1"
   transform="matrix(0,1.0749327,0.9302908,0,0,0)"><tspan
     sodipodi:role="line"
     x="779.03424"
     y="465.76993"
     style="font-size:18.3022px;text-align:center;text-anchor:middle;fill:#000000;stroke-width:1.13816212;stroke-dasharray:none"
     id="tspan57924-8">GDB CLIENT</tspan></text><text
   xml:space="preserve"
   style="font-style:normal;font-weight:normal;font-size:45.7552px;line-height:0.25;font-family:sans-serif;fill:#000000;fill-opacity:1;stroke:none;stroke-width:1.13816212;stroke-dasharray:none"
   x="781.33807"
   y="153.64667"
   id="text786-0-2-5-4-7-05-8-1-6-43-14-9-2-6-03-2-7-2-8-4"
   transform="matrix(0,1.0749327,0.9302908,0,0,0)"><tspan
     sodipodi:role="line"
     x="781.33807"
     y="153.64667"
     style="font-size:18.3022px;text-align:center;text-anchor:middle;fill:#000000;stroke-width:1.13816212;stroke-dasharray:none"
     id="tspan57960">GPIO DRIVER</tspan></text><text
   xml:space="preserve"
   style="font-style:normal;font-weight:normal;font-size:45.7552px;line-height:0.25;font-family:sans-serif;fill:#000000;fill-opacity:1;stroke:none;stroke-width:1.13816212;stroke-dasharray:none"
   x="875.18152"
   y="-6.4532733"
   id="text786-0-2-5-4-7-05-8-1-6-43-14-9-2-6-03-19"
   transform="matrix(0,1.0749327,0.9302908,0,0,0)"><tspan
     sodipodi:role="line"
     x="875.18152"
     y="-6.4532733"
     style="font-size:18.3022px;text-align:center;text-anchor:middle;fill:#000000;stroke-width:1.13816212;stroke-dasharray:none"
     id="tspan8395-83-6">ZYNQ 7020</tspan></text><text
   xml:space="preserve"
   style="font-style:normal;font-weight:normal;font-size:45.7552px;line-height:0.25;font-family:sans-serif;fill:#000000;fill-opacity:1;stroke:none;stroke-width:1.13816212;stroke-dasharray:none"
   x="281.17618"
   y="788.10565"
   id="text786-0-2-5-4-7-05-8-1-6-43-14-9-2-6-03-13"
   transform="matrix(0,1.0749327,0.9302908,0,0,0)"><tspan
     sodipodi:role="line"
     x="281.17618"
     y="788.10565"
     style="font-size:18.3022px;text-align:center;text-anchor:middle;fill:#000000;stroke-width:1.13816212;stroke-dasharray:none"
     id="tspan8395-83-8">PROGRAMMABLE LOGIC</tspan></text><text
   xml:space="preserve"
   style="font-style:normal;font-weight:normal;font-size:45.7552px;line-height:0.25;font-family:sans-serif;fill:#000000;fill-opacity:1;stroke:none;stroke-width:1.13816212;stroke-dasharray:none"
   x="774.13971"
   y="788.2442"
   id="text786-0-2-5-4-7-05-8-1-6-43-14-9-2-6-03-13-1"
   transform="matrix(0,1.0749327,0.9302908,0,0,0)"><tspan
     sodipodi:role="line"
     x="774.13971"
     y="788.2442"
     style="font-size:18.3022px;text-align:center;text-anchor:middle;fill:#000000;stroke-width:1.13816212;stroke-dasharray:none"
     id="tspan8395-83-8-4">PROCESSING SYSTEM</tspan></text><path
   style="fill:none;stroke:#000000;stroke-width:1.58824486;stroke-linecap:butt;stroke-linejoin:miter;stroke-dasharray:none;stroke-opacity:1;marker-start:url(#marker27788-8-1-7-6-1-5-3);marker-end:url(#marker27788-8-1-7-6-1-5-3-4)"
   d="m 324.89307,843.23403 39.64257,-0.0597"
   id="path2543-5-2-29-1-0-2-8-9-7-6-9" /><path
   style="fill:none;stroke:#000000;stroke-width:1.57913053;stroke-linecap:butt;stroke-linejoin:miter;stroke-dasharray:none;stroke-opacity:1;marker-start:url(#marker27788-8-1-7-6-1-5-3-6);marker-end:url(#marker27788-8-1-7-6-1-5-3-4-5)"
   d="m 188.50741,842.76 19.94448,-0.11697"
   id="path2543-5-2-29-1-0-2-8-9-7-6-9-5" /><path
   style="fill:none;stroke:#000000;stroke-width:1.70415;stroke-linecap:butt;stroke-linejoin:miter;stroke-dasharray:none;stroke-opacity:1;marker-start:url(#marker27788-8-1-7-6-1-5-2-7-5-7-4);marker-end:url(#marker27788-6-6-9-9-5-0-3-0)"
   d="m 134.68155,580.96656 v 5.98508 5.98335 53.85123"
   id="path14961-6-1-5-8-0-3-9-91-78-70-1-7"
   inkscape:connector-curvature="0"
   sodipodi:nodetypes="cccc" /><path
   style="fill:none;stroke:#000000;stroke-width:1.82866;stroke-linecap:butt;stroke-linejoin:miter;stroke-dasharray:none;stroke-opacity:1;marker-start:url(#marker27788-8-1-7-6-1-5-2-7-9-2-5-7-5);marker-end:url(#marker27788-6-6-9-9-5-2-7-1-3-6)"
   d="m 134.75913,494.81922 v 5.52411 5.52249 49.70349"
   id="path14961-6-1-5-8-0-3-9-91-78-7-5-2-0-2"
   inkscape:connector-curvature="0"
   sodipodi:nodetypes="cccc" /><text
   xml:space="preserve"
   style="font-style:normal;font-weight:normal;font-size:47.8726px;line-height:0.25;font-family:sans-serif;fill:#000000;fill-opacity:1;stroke:none;stroke-width:1.19083;stroke-dasharray:none"
   x="399.51395"
   y="157.84096"
   id="text786-0-2-5-4-7-05-8-1-6-43-14-9-2-6-03-2"
   transform="matrix(0,1.1246779,0.88914345,0,0,0)"><tspan
     sodipodi:role="line"
     x="399.51395"
     y="157.84096"
     style="font-size:19.1492px;text-align:center;text-anchor:middle;fill:#000000;stroke-width:1.19083;stroke-dasharray:none"
     id="tspan8395-83-69">JTAG</tspan></text></g></svg>
