<?xml version="1.0" encoding="UTF-8" standalone="no"?>
<svg
   id="svg2"
   version="1.1"
   inkscape:version="1.2.2 (1:1.2.2+202212051552+b0a8486541)"
   width="420mm"
   height="297mm"
   xml:space="preserve"
   sodipodi:docname="pl_ps.svg"
   inkscape:export-filename="fpga_2.pdf"
   inkscape:export-xdpi="200"
   inkscape:export-ydpi="200"
   viewBox="0 0 1428.6614 1010.2678"
   xmlns:inkscape="http://www.inkscape.org/namespaces/inkscape"
   xmlns:sodipodi="http://sodipodi.sourceforge.net/DTD/sodipodi-0.dtd"
   xmlns:xlink="http://www.w3.org/1999/xlink"
   xmlns="http://www.w3.org/2000/svg"
   xmlns:svg="http://www.w3.org/2000/svg"
   xmlns:rdf="http://www.w3.org/1999/02/22-rdf-syntax-ns#"
   xmlns:cc="http://creativecommons.org/ns#"
   xmlns:dc="http://purl.org/dc/elements/1.1/"><metadata
     id="metadata8"><rdf:RDF><cc:Work
         rdf:about=""><dc:format>image/svg+xml</dc:format><dc:type
           rdf:resource="http://purl.org/dc/dcmitype/StillImage" /></cc:Work></rdf:RDF></metadata><defs
     id="defs6"><marker
   inkscape:stockid="DotM"
   orient="auto"
   refY="0"
   refX="0"
   id="DotM"
   style="overflow:visible"><path
     id="path13484"
     d="m -2.5,-1 c 0,2.76 -2.24,5 -5,5 -2.76,0 -5,-2.24 -5,-5 0,-2.76 2.24,-5 5,-5 2.76,0 5,2.24 5,5 z"
     style="fill-rule:evenodd;stroke:#000000;stroke-width:1pt;marker-start:none;marker-end:none"
     transform="matrix(0.4,0,0,0.4,2.96,0.4)" /></marker><marker
   inkscape:stockid="DotS"
   orient="auto"
   refY="0"
   refX="0"
   id="DotS"
   style="overflow:visible"><path
     id="path13487"
     d="m -2.5,-1 c 0,2.76 -2.24,5 -5,5 -2.76,0 -5,-2.24 -5,-5 0,-2.76 2.24,-5 5,-5 2.76,0 5,2.24 5,5 z"
     style="fill-rule:evenodd;stroke:#000000;stroke-width:1pt;marker-start:none;marker-end:none"
     transform="matrix(0.2,0,0,0.2,1.48,0.2)" /></marker><linearGradient
   id="linearGradient13151"
   inkscape:swatch="solid"><stop
     style="stop-color:#ffffff;stop-opacity:1;"
     offset="0"
     id="stop13153" /></linearGradient><linearGradient
   id="linearGradient13145"
   inkscape:swatch="solid"><stop
     style="stop-color:#540000;stop-opacity:1;"
     offset="0"
     id="stop13147" /></linearGradient>




<linearGradient
   inkscape:collect="always"
   xlink:href="#linearGradient13151"
   id="linearGradient13155"
   x1="398.60001"
   y1="549"
   x2="403.89951"
   y2="549"
   gradientUnits="userSpaceOnUse" /><marker
   inkscape:stockid="DotM"
   orient="auto"
   refY="0"
   refX="0"
   id="DotM-0"
   style="overflow:visible"><path
     inkscape:connector-curvature="0"
     id="path13484-5"
     d="m -2.5,-1 c 0,2.76 -2.24,5 -5,5 -2.76,0 -5,-2.24 -5,-5 0,-2.76 2.24,-5 5,-5 2.76,0 5,2.24 5,5 z"
     style="fill-rule:evenodd;stroke:#000000;stroke-width:1pt;marker-start:none;marker-end:none"
     transform="matrix(0.4,0,0,0.4,2.96,0.4)" /></marker><marker
   inkscape:stockid="DotM"
   orient="auto"
   refY="0"
   refX="0"
   id="marker20432"
   style="overflow:visible"><path
     inkscape:connector-curvature="0"
     id="path20434"
     d="m -2.5,-1 c 0,2.76 -2.24,5 -5,5 -2.76,0 -5,-2.24 -5,-5 0,-2.76 2.24,-5 5,-5 2.76,0 5,2.24 5,5 z"
     style="fill-rule:evenodd;stroke:#000000;stroke-width:1pt;marker-start:none;marker-end:none"
     transform="matrix(0.4,0,0,0.4,2.96,0.4)" /></marker><marker
   inkscape:stockid="DotM"
   orient="auto"
   refY="0"
   refX="0"
   id="marker20436"
   style="overflow:visible"><path
     inkscape:connector-curvature="0"
     id="path20438"
     d="m -2.5,-1 c 0,2.76 -2.24,5 -5,5 -2.76,0 -5,-2.24 -5,-5 0,-2.76 2.24,-5 5,-5 2.76,0 5,2.24 5,5 z"
     style="fill-rule:evenodd;stroke:#000000;stroke-width:1pt;marker-start:none;marker-end:none"
     transform="matrix(0.4,0,0,0.4,2.96,0.4)" /></marker><marker
   inkscape:stockid="DotM"
   orient="auto"
   refY="0"
   refX="0"
   id="DotM-5"
   style="overflow:visible"><path
     inkscape:connector-curvature="0"
     id="path13484-7"
     d="m -2.5,-1 c 0,2.76 -2.24,5 -5,5 -2.76,0 -5,-2.24 -5,-5 0,-2.76 2.24,-5 5,-5 2.76,0 5,2.24 5,5 z"
     style="fill-rule:evenodd;stroke:#000000;stroke-width:1pt;marker-start:none;marker-end:none"
     transform="matrix(0.4,0,0,0.4,2.96,0.4)" /></marker><marker
   inkscape:stockid="DotM"
   orient="auto"
   refY="0"
   refX="0"
   id="DotM-6"
   style="overflow:visible"><path
     inkscape:connector-curvature="0"
     id="path13484-72"
     d="m -2.5,-1 c 0,2.76 -2.24,5 -5,5 -2.76,0 -5,-2.24 -5,-5 0,-2.76 2.24,-5 5,-5 2.76,0 5,2.24 5,5 z"
     style="fill-rule:evenodd;stroke:#000000;stroke-width:1pt;marker-start:none;marker-end:none"
     transform="matrix(0.4,0,0,0.4,2.96,0.4)" /></marker><marker
   inkscape:stockid="DotM"
   orient="auto"
   refY="0"
   refX="0"
   id="DotM-07"
   style="overflow:visible"
   viewBox="0 0 4.5333334 4.5333334"
   markerWidth="4.5333333"
   markerHeight="4.5333333"
   preserveAspectRatio="xMidYMid"><path
     inkscape:connector-curvature="0"
     id="path13484-8"
     d="m -2.5,-1 c 0,2.76 -2.24,5 -5,5 -2.76,0 -5,-2.24 -5,-5 0,-2.76 2.24,-5 5,-5 2.76,0 5,2.24 5,5 z"
     style="fill-rule:evenodd;stroke:#000000;stroke-width:1pt;marker-start:none;marker-end:none"
     transform="matrix(0.4,0,0,0.4,2.96,0.4)" /></marker><marker
   inkscape:stockid="DotM"
   orient="auto"
   refY="0"
   refX="0"
   id="DotM-52"
   style="overflow:visible"><path
     inkscape:connector-curvature="0"
     id="path13484-4"
     d="m -2.5,-1 c 0,2.76 -2.24,5 -5,5 -2.76,0 -5,-2.24 -5,-5 0,-2.76 2.24,-5 5,-5 2.76,0 5,2.24 5,5 z"
     style="fill-rule:evenodd;stroke:#000000;stroke-width:1pt;marker-start:none;marker-end:none"
     transform="matrix(0.4,0,0,0.4,2.96,0.4)" /></marker><marker
   inkscape:stockid="DotM"
   orient="auto"
   refY="0"
   refX="0"
   id="DotM-2"
   style="overflow:visible"><path
     inkscape:connector-curvature="0"
     id="path13484-86"
     d="m -2.5,-1 c 0,2.76 -2.24,5 -5,5 -2.76,0 -5,-2.24 -5,-5 0,-2.76 2.24,-5 5,-5 2.76,0 5,2.24 5,5 z"
     style="fill-rule:evenodd;stroke:#000000;stroke-width:1pt;marker-start:none;marker-end:none"
     transform="matrix(0.4,0,0,0.4,2.96,0.4)" /></marker><marker
   inkscape:stockid="DotM"
   orient="auto"
   refY="0"
   refX="0"
   id="DotM-2-8"
   style="overflow:visible"><path
     inkscape:connector-curvature="0"
     id="path13484-86-8"
     d="m -2.5,-1 c 0,2.76 -2.24,5 -5,5 -2.76,0 -5,-2.24 -5,-5 0,-2.76 2.24,-5 5,-5 2.76,0 5,2.24 5,5 z"
     style="fill-rule:evenodd;stroke:#000000;stroke-width:1pt;marker-start:none;marker-end:none"
     transform="matrix(0.4,0,0,0.4,2.96,0.4)" /></marker><marker
   inkscape:stockid="DotM"
   orient="auto"
   refY="0"
   refX="0"
   id="DotM-2-4"
   style="overflow:visible"><path
     inkscape:connector-curvature="0"
     id="path13484-86-3"
     d="m -2.5,-1 c 0,2.76 -2.24,5 -5,5 -2.76,0 -5,-2.24 -5,-5 0,-2.76 2.24,-5 5,-5 2.76,0 5,2.24 5,5 z"
     style="fill-rule:evenodd;stroke:#000000;stroke-width:1pt;marker-start:none;marker-end:none"
     transform="matrix(0.4,0,0,0.4,2.96,0.4)" /></marker><marker
   inkscape:stockid="DotM"
   orient="auto"
   refY="0"
   refX="0"
   id="DotM-2-4-2"
   style="overflow:visible"><path
     inkscape:connector-curvature="0"
     id="path13484-86-3-0"
     d="m -2.5,-1 c 0,2.76 -2.24,5 -5,5 -2.76,0 -5,-2.24 -5,-5 0,-2.76 2.24,-5 5,-5 2.76,0 5,2.24 5,5 z"
     style="fill-rule:evenodd;stroke:#000000;stroke-width:1pt;marker-start:none;marker-end:none"
     transform="matrix(0.4,0,0,0.4,2.96,0.4)" /></marker><marker
   inkscape:stockid="DotM"
   orient="auto"
   refY="0"
   refX="0"
   id="DotM-2-42"
   style="overflow:visible"><path
     inkscape:connector-curvature="0"
     id="path13484-86-6"
     d="m -2.5,-1 c 0,2.76 -2.24,5 -5,5 -2.76,0 -5,-2.24 -5,-5 0,-2.76 2.24,-5 5,-5 2.76,0 5,2.24 5,5 z"
     style="fill-rule:evenodd;stroke:#000000;stroke-width:1pt;marker-start:none;marker-end:none"
     transform="matrix(0.4,0,0,0.4,2.96,0.4)" /></marker><marker
   inkscape:stockid="DotM"
   orient="auto"
   refY="0"
   refX="0"
   id="DotM-2-42-2"
   style="overflow:visible"><path
     inkscape:connector-curvature="0"
     id="path13484-86-6-7"
     d="m -2.5,-1 c 0,2.76 -2.24,5 -5,5 -2.76,0 -5,-2.24 -5,-5 0,-2.76 2.24,-5 5,-5 2.76,0 5,2.24 5,5 z"
     style="fill-rule:evenodd;stroke:#000000;stroke-width:1pt;marker-start:none;marker-end:none"
     transform="matrix(0.4,0,0,0.4,2.96,0.4)" /></marker><marker
   inkscape:stockid="DotM"
   orient="auto"
   refY="0"
   refX="0"
   id="DotM-2-42-2-4"
   style="overflow:visible"><path
     inkscape:connector-curvature="0"
     id="path13484-86-6-7-8"
     d="m -2.5,-1 c 0,2.76 -2.24,5 -5,5 -2.76,0 -5,-2.24 -5,-5 0,-2.76 2.24,-5 5,-5 2.76,0 5,2.24 5,5 z"
     style="fill-rule:evenodd;stroke:#000000;stroke-width:1pt;marker-start:none;marker-end:none"
     transform="matrix(0.4,0,0,0.4,2.96,0.4)" /></marker><marker
   style="overflow:visible"
   id="marker27788-8-1-7-6-1-5-2-7-9-2-5-7"
   refX="0"
   refY="0"
   orient="auto-start-reverse"
   inkscape:stockid="Arrow2"
   markerWidth="7.6999998"
   markerHeight="5.5999999"
   viewBox="0 0 7.7 5.6"
   inkscape:isstock="true"
   inkscape:collect="always"
   preserveAspectRatio="xMidYMid"><path
     transform="scale(0.7)"
     d="M -2,-4 9,0 -2,4 c 2,-2.33 2,-5.66 0,-8 z"
     style="fill:context-stroke;fill-rule:evenodd;stroke:none"
     id="path27786-6-9-6-6-4-8-4-4-8-2-42-5" /></marker><marker
   style="overflow:visible"
   id="marker27788-6-6-9-9-5-2-7-1-3"
   refX="0"
   refY="0"
   orient="auto-start-reverse"
   inkscape:stockid="Arrow2"
   markerWidth="7.6999998"
   markerHeight="5.5999999"
   viewBox="0 0 7.7 5.6"
   inkscape:isstock="true"
   inkscape:collect="always"
   preserveAspectRatio="xMidYMid"><path
     transform="scale(0.7)"
     d="M -2,-4 9,0 -2,4 c 2,-2.33 2,-5.66 0,-8 z"
     style="fill:context-stroke;fill-rule:evenodd;stroke:none"
     id="path27786-67-0-9-2-1-0-1-9-9" /></marker><marker
   style="overflow:visible"
   id="marker27788-8-1-7-6-1-5-2-7-9-2-5-7-5"
   refX="0"
   refY="0"
   orient="auto-start-reverse"
   inkscape:stockid="Arrow2"
   markerWidth="7.6999998"
   markerHeight="5.5999999"
   viewBox="0 0 7.7 5.6"
   inkscape:isstock="true"
   inkscape:collect="always"
   preserveAspectRatio="xMidYMid"><path
     transform="scale(0.7)"
     d="M -2,-4 9,0 -2,4 c 2,-2.33 2,-5.66 0,-8 z"
     style="fill:context-stroke;fill-rule:evenodd;stroke:none"
     id="path27786-6-9-6-6-4-8-4-4-8-2-42-5-5" /></marker><marker
   style="overflow:visible"
   id="marker27788-6-6-9-9-5-2-7-1-3-6"
   refX="0"
   refY="0"
   orient="auto-start-reverse"
   inkscape:stockid="Arrow2"
   markerWidth="7.6999998"
   markerHeight="5.5999999"
   viewBox="0 0 7.7 5.6"
   inkscape:isstock="true"
   inkscape:collect="always"
   preserveAspectRatio="xMidYMid"><path
     transform="scale(0.7)"
     d="M -2,-4 9,0 -2,4 c 2,-2.33 2,-5.66 0,-8 z"
     style="fill:context-stroke;fill-rule:evenodd;stroke:none"
     id="path27786-67-0-9-2-1-0-1-9-9-3" /></marker><marker
   style="overflow:visible"
   id="marker27788-8-1-7-6-1-5-2-7-9-2-5-7-3"
   refX="0"
   refY="0"
   orient="auto-start-reverse"
   inkscape:stockid="Arrow2"
   markerWidth="7.6999998"
   markerHeight="5.5999999"
   viewBox="0 0 7.7 5.6"
   inkscape:isstock="true"
   inkscape:collect="always"
   preserveAspectRatio="xMidYMid"><path
     transform="scale(0.7)"
     d="M -2,-4 9,0 -2,4 c 2,-2.33 2,-5.66 0,-8 z"
     style="fill:context-stroke;fill-rule:evenodd;stroke:none"
     id="path27786-6-9-6-6-4-8-4-4-8-2-42-5-6" /></marker><marker
   style="overflow:visible"
   id="marker27788-6-6-9-9-5-2-7-1-3-7"
   refX="0"
   refY="0"
   orient="auto-start-reverse"
   inkscape:stockid="Arrow2"
   markerWidth="7.6999998"
   markerHeight="5.5999999"
   viewBox="0 0 7.7 5.6"
   inkscape:isstock="true"
   inkscape:collect="always"
   preserveAspectRatio="xMidYMid"><path
     transform="scale(0.7)"
     d="M -2,-4 9,0 -2,4 c 2,-2.33 2,-5.66 0,-8 z"
     style="fill:context-stroke;fill-rule:evenodd;stroke:none"
     id="path27786-67-0-9-2-1-0-1-9-9-5" /></marker><marker
   style="overflow:visible"
   id="marker27788-8-1-7-6-1-5-2-7-9-2-5-7-56"
   refX="0"
   refY="0"
   orient="auto-start-reverse"
   inkscape:stockid="Arrow2"
   markerWidth="7.6999998"
   markerHeight="5.5999999"
   viewBox="0 0 7.7 5.6"
   inkscape:isstock="true"
   inkscape:collect="always"
   preserveAspectRatio="xMidYMid"><path
     transform="scale(0.7)"
     d="M -2,-4 9,0 -2,4 c 2,-2.33 2,-5.66 0,-8 z"
     style="fill:context-stroke;fill-rule:evenodd;stroke:none"
     id="path27786-6-9-6-6-4-8-4-4-8-2-42-5-2" /></marker><marker
   style="overflow:visible"
   id="marker27788-6-6-9-9-5-2-7-1-3-9"
   refX="0"
   refY="0"
   orient="auto-start-reverse"
   inkscape:stockid="Arrow2"
   markerWidth="7.6999998"
   markerHeight="5.5999999"
   viewBox="0 0 7.7 5.6"
   inkscape:isstock="true"
   inkscape:collect="always"
   preserveAspectRatio="xMidYMid"><path
     transform="scale(0.7)"
     d="M -2,-4 9,0 -2,4 c 2,-2.33 2,-5.66 0,-8 z"
     style="fill:context-stroke;fill-rule:evenodd;stroke:none"
     id="path27786-67-0-9-2-1-0-1-9-9-1" /></marker></defs><sodipodi:namedview
     pagecolor="#ffffff"
     bordercolor="#666666"
     borderopacity="1"
     objecttolerance="10"
     gridtolerance="10"
     guidetolerance="10"
     inkscape:pageopacity="0"
     inkscape:pageshadow="2"
     inkscape:window-width="3440"
     inkscape:window-height="1403"
     id="namedview4"
     showgrid="true"
     units="mm"
     borderlayer="false"
     inkscape:zoom="0.76127497"
     inkscape:cx="768.4477"
     inkscape:cy="648.91139"
     inkscape:window-x="0"
     inkscape:window-y="0"
     inkscape:window-maximized="1"
     inkscape:current-layer="g10"
     inkscape:snap-grids="true"
     inkscape:snap-to-guides="true"
     inkscape:document-rotation="0"
     inkscape:snap-bbox="true"
     inkscape:snap-global="true"
     showguides="true"
     width="296mm"
     scale-x="0.9"
     inkscape:showpageshadow="0"
     inkscape:pagecheckerboard="0"
     inkscape:deskcolor="#d1d1d1"
     inkscape:document-units="mm"><inkscape:grid
       empspacing="5"
       visible="true"
       enabled="true"
       snapvisiblegridlinesonly="true"
       units="pt"
       spacingx="0.9pt"
       spacingy="0.9pt"
       type="xygrid"
       id="grid5223"
       originx="0"
       originy="0" /></sodipodi:namedview><g
     id="g10"
     inkscape:groupmode="layer"
     inkscape:label="ink_ext_XXXXXX"
     transform="matrix(0,1.25,1.25,0,0,42.5)">



































































































































































































































































































































































































































































































































































































































































































































































































































































































































































<path
   style="fill:none;fill-rule:evenodd;stroke:#000000;stroke-width:0.959414;stroke-linecap:butt;stroke-linejoin:miter;stroke-dasharray:none;stroke-opacity:1"
   d="m 279.93786,17.15376 v 0"
   id="path24445"
   inkscape:connector-type="polyline"
   inkscape:connector-curvature="0" /><path
   style="fill:none;fill-rule:evenodd;stroke:#000000;stroke-width:0.959414;stroke-linecap:butt;stroke-linejoin:miter;stroke-dasharray:none;stroke-opacity:1"
   d="m 287.36392,32.752296 v 0"
   id="path24447"
   inkscape:connector-type="polyline"
   inkscape:connector-curvature="0" /><path
   style="fill:none;stroke:#000000;stroke-width:1.78976421;stroke-linecap:butt;stroke-linejoin:miter;stroke-dasharray:none;stroke-opacity:1;marker-start:url(#marker27788-8-1-7-6-1-5-2-7-9-2-5-7);marker-end:url(#marker27788-6-6-9-9-5-2-7-1-3)"
   d="m 590.82187,494.87804 v 5.27348 5.27196 47.44854"
   id="path14961-6-1-5-8-0-3-9-91-78-7-5-2-0"
   inkscape:connector-curvature="0"
   sodipodi:nodetypes="cccc" /><path
   style="fill:none;stroke:#000000;stroke-width:1.78976;stroke-linecap:butt;stroke-linejoin:miter;stroke-dasharray:none;stroke-opacity:1;marker-start:url(#marker27788-8-1-7-6-1-5-2-7-9-2-5-7-3);marker-end:url(#marker27788-6-6-9-9-5-2-7-1-3-7)"
   d="m 591.04356,583.84377 v 5.27348 5.27196 47.44854"
   id="path14961-6-1-5-8-0-3-9-91-78-7-5-2-0-3"
   inkscape:connector-curvature="0"
   sodipodi:nodetypes="cccc" /><path
   style="fill:none;stroke:#000000;stroke-width:1.78976;stroke-linecap:butt;stroke-linejoin:miter;stroke-dasharray:none;stroke-opacity:1;marker-start:url(#marker27788-8-1-7-6-1-5-2-7-9-2-5-7-56);marker-end:url(#marker27788-6-6-9-9-5-2-7-1-3-9)"
   d="m 198.88399,583.70338 v 5.27348 5.27196 47.44854"
   id="path14961-6-1-5-8-0-3-9-91-78-7-5-2-0-27"
   inkscape:connector-curvature="0"
   sodipodi:nodetypes="cccc" /><path
   style="fill:none;stroke:#000000;stroke-width:1.74778472;stroke-linecap:butt;stroke-linejoin:miter;stroke-dasharray:none;stroke-opacity:1;marker-start:url(#marker27788-8-1-7-6-1-5-2-7-9-2-5-7-5);marker-end:url(#marker27788-6-6-9-9-5-2-7-1-3-6)"
   d="m 198.8026,495.6442 v 5.04625 5.04476 45.4039"
   id="path14961-6-1-5-8-0-3-9-91-78-7-5-2-0-2"
   inkscape:connector-curvature="0"
   sodipodi:nodetypes="cccc" /><rect
   style="fill:none;stroke:#000000;stroke-width:1.63275597;stroke-dasharray:none;stroke-opacity:0.995745"
   id="rect10903-6-7-5"
   width="1067.8672"
   height="742.9223"
   x="36.767479"
   y="2.1686361"
   transform="matrix(0,1,1,0,0,0)"
   ry="13.290697" /><rect
   style="fill:#d5e5ff;stroke:#000000;stroke-width:1.74704888;stroke-dasharray:none;stroke-opacity:0.995745"
   id="rect10903-6-7-5-8"
   width="379.5051"
   height="636.02588"
   x="101.27168"
   y="45.560413"
   transform="matrix(0,1,1,0,0,0)"
   ry="11.378345" /><rect
   style="fill:#d7f4d7;stroke:#000000;stroke-width:1.74705;stroke-dasharray:none;stroke-opacity:0.995745"
   id="rect10903-6-7-5-8-0"
   width="379.5051"
   height="636.02588"
   x="657.96722"
   y="45.607037"
   transform="matrix(0,1,1,0,0,0)"
   ry="11.378345" /><path
   style="fill:none;stroke:#000000;stroke-width:1.98350269;stroke-linecap:butt;stroke-linejoin:miter;stroke-dasharray:none;stroke-opacity:1"
   d="m 2.7963245,568.69587 742.6691155,-10e-4"
   id="path2543-5-2-29-1-0-2-8-9-7-6-1" /><text
   xml:space="preserve"
   style="font-style:normal;font-weight:normal;font-size:45.7552px;line-height:0.35;font-family:sans-serif;fill:#000000;fill-opacity:1;stroke:none;stroke-width:1.13816;stroke-dasharray:none"
   x="269.2298"
   y="359.66034"
   id="text786-0-2-5-4-7-05-8-1-6-43-14-9-2-6"
   transform="matrix(0,1.0749327,0.9302908,0,0,0)"><tspan
     sodipodi:role="line"
     x="269.2298"
     y="359.66034"
     style="font-size:18.3022px;text-align:center;text-anchor:middle;fill:#000000;stroke-width:1.13816;stroke-dasharray:none"
     id="tspan57760">X-HEEP-BASED</tspan><tspan
     sodipodi:role="line"
     x="269.2298"
     y="378.00174"
     style="font-size:18.3022px;text-align:center;text-anchor:middle;fill:#000000;stroke-width:1.13816;stroke-dasharray:none"
     id="tspan717">PLATFORM</tspan></text><text
   xml:space="preserve"
   style="font-style:normal;font-weight:normal;font-size:45.7552px;line-height:0.35;font-family:sans-serif;fill:#000000;fill-opacity:1;stroke:none;stroke-width:1.13816;stroke-dasharray:none"
   x="792.67114"
   y="345.11908"
   id="text786-0-2-5-4-7-05-8-1-6-43-14-9-2-6-9"
   transform="matrix(0,1.0749327,0.9302908,0,0,0)"><tspan
     sodipodi:role="line"
     x="792.67114"
     y="345.11908"
     style="font-size:18.3022px;text-align:center;text-anchor:middle;fill:#000000;stroke-width:1.13816;stroke-dasharray:none"
     id="tspan717-6">LINUX</tspan><tspan
     sodipodi:role="line"
     x="792.67114"
     y="363.46048"
     style="font-size:18.3022px;text-align:center;text-anchor:middle;fill:#000000;stroke-width:1.13816;stroke-dasharray:none"
     id="tspan2131">OPERATING</tspan><tspan
     sodipodi:role="line"
     x="792.67114"
     y="381.80185"
     style="font-size:18.3022px;text-align:center;text-anchor:middle;fill:#000000;stroke-width:1.13816;stroke-dasharray:none"
     id="tspan2133">SYSTEM</tspan></text><text
   xml:space="preserve"
   style="font-style:normal;font-weight:normal;font-size:45.7552px;line-height:0.25;font-family:sans-serif;fill:#000000;fill-opacity:1;stroke:none;stroke-width:1.13816212;stroke-dasharray:none"
   x="875.18152"
   y="-6.4532733"
   id="text786-0-2-5-4-7-05-8-1-6-43-14-9-2-6-03-19"
   transform="matrix(0,1.0749327,0.9302908,0,0,0)"><tspan
     sodipodi:role="line"
     x="875.18152"
     y="-6.4532733"
     style="font-size:18.3022px;text-align:center;text-anchor:middle;fill:#000000;stroke-width:1.13816212;stroke-dasharray:none"
     id="tspan8395-83-6">ZYNQ 7020</tspan></text><text
   xml:space="preserve"
   style="font-style:normal;font-weight:normal;font-size:45.7552px;line-height:0.25;font-family:sans-serif;fill:#000000;fill-opacity:1;stroke:none;stroke-width:1.13816212;stroke-dasharray:none"
   x="281.17618"
   y="788.10565"
   id="text786-0-2-5-4-7-05-8-1-6-43-14-9-2-6-03-13"
   transform="matrix(0,1.0749327,0.9302908,0,0,0)"><tspan
     sodipodi:role="line"
     x="281.17618"
     y="788.10565"
     style="font-size:18.3022px;text-align:center;text-anchor:middle;fill:#000000;stroke-width:1.13816212;stroke-dasharray:none"
     id="tspan8395-83-8">PROGRAMMABLE LOGIC</tspan></text><text
   xml:space="preserve"
   style="font-style:normal;font-weight:normal;font-size:45.7552px;line-height:0.25;font-family:sans-serif;fill:#000000;fill-opacity:1;stroke:none;stroke-width:1.13816212;stroke-dasharray:none"
   x="774.13971"
   y="788.2442"
   id="text786-0-2-5-4-7-05-8-1-6-43-14-9-2-6-03-13-1"
   transform="matrix(0,1.0749327,0.9302908,0,0,0)"><tspan
     sodipodi:role="line"
     x="774.13971"
     y="788.2442"
     style="font-size:18.3022px;text-align:center;text-anchor:middle;fill:#000000;stroke-width:1.13816212;stroke-dasharray:none"
     id="tspan8395-83-8-4">PROCESSING SYSTEM</tspan></text></g></svg>
